<mxfile host="65bd71144e">
    <diagram id="JYNVExiJZVghlRtYWaoA" name="Page-1">
        <mxGraphModel dx="647" dy="619" grid="1" gridSize="5" guides="0" tooltips="1" connect="0" arrows="0" fold="1" page="1" pageScale="1" pageWidth="827" pageHeight="1169" math="0" shadow="0">
            <root>
                <mxCell id="0"/>
                <mxCell id="1" parent="0"/>
                <mxCell id="2" value="&lt;div style=&quot;font-size: 15px&quot;&gt;&lt;span&gt;valeurs[&amp;nbsp; &amp;nbsp; &amp;nbsp; &amp;nbsp;,&amp;nbsp; &amp;nbsp; &amp;nbsp; &amp;nbsp;]&lt;/span&gt;&lt;br&gt;&lt;/div&gt;" style="text;html=1;strokeColor=none;fillColor=none;align=left;verticalAlign=top;whiteSpace=wrap;rounded=0;fontFamily=Courier New;" parent="1" vertex="1">
                    <mxGeometry x="225" y="170" width="225" height="115" as="geometry"/>
                </mxCell>
                <mxCell id="3" value="" style="endArrow=none;html=1;fontFamily=Courier New;fontSize=15;strokeColor=#3333FF;" parent="1" edge="1">
                    <mxGeometry width="50" height="50" relative="1" as="geometry">
                        <mxPoint x="405" y="195" as="sourcePoint"/>
                        <mxPoint x="385" y="245" as="targetPoint"/>
                    </mxGeometry>
                </mxCell>
                <mxCell id="4" value="" style="endArrow=none;html=1;fontFamily=Courier New;fontSize=15;strokeColor=#3333FF;" parent="1" edge="1">
                    <mxGeometry width="50" height="50" relative="1" as="geometry">
                        <mxPoint x="345" y="195" as="sourcePoint"/>
                        <mxPoint x="385" y="245" as="targetPoint"/>
                    </mxGeometry>
                </mxCell>
                <mxCell id="7" value="0&amp;nbsp; 1&lt;br&gt;2&amp;nbsp; 2" style="text;html=1;strokeColor=default;fillColor=none;align=center;verticalAlign=middle;whiteSpace=wrap;rounded=0;" vertex="1" parent="1">
                    <mxGeometry x="315" y="180" width="35" height="35" as="geometry"/>
                </mxCell>
                <mxCell id="8" value="0&amp;nbsp; 0&lt;br&gt;3&amp;nbsp; 3" style="text;html=1;strokeColor=default;fillColor=none;align=center;verticalAlign=middle;whiteSpace=wrap;rounded=0;" vertex="1" parent="1">
                    <mxGeometry x="385" y="180" width="35" height="35" as="geometry"/>
                </mxCell>
                <mxCell id="9" value="00&amp;nbsp; 10&lt;br&gt;23&amp;nbsp; 23" style="text;html=1;strokeColor=default;fillColor=none;align=center;verticalAlign=middle;whiteSpace=wrap;rounded=0;" vertex="1" parent="1">
                    <mxGeometry x="351" y="240" width="45" height="40" as="geometry"/>
                </mxCell>
            </root>
        </mxGraphModel>
    </diagram>
</mxfile>